#!OML:ASF F:\VICON\USERDATA\INSTALL\Justin_Nancy\Justin_Nancy.ASF
:FULLY-SPECIFIED
:DEGREES
128
root -1.15862 16.7723 24.3635 -8.62992 7.49728 -2.27479
lowerback 12.201 -2.43204 0.942582
upperback -0.58034 -2.83315 3.54203
thorax -7.33595 -1.34351 3.74642
lowerneck -20.1515 -3.94252 -10.2809
upperneck 21.8622 -3.67885 5.55231
head 10.6727 -1.8777 3.15279
rclavicle 4.54223e-014 -2.14687e-014
rhumerus -43.6325 -12.8307 -71.3282
rradius 53.4437
rwrist 2.96904
rhand -20.3226 19.585
rfingers 7.12502
rthumb 6.02839 -10.3093
lclavicle 4.54223e-014 -2.14687e-014
lhumerus -31.2887 8.20079 89.3573
lradius 62.5795
lwrist 7.38349
lhand -26.5521 15.9508
lfingers 7.12502
lthumb 0.0125345 45.9305
rfemur -21.0226 2.98364 22.4632
rtibia 37.3137
rfoot -1.81196 -4.65344
rtoes -1.02203
lfemur -15.726 -7.83953 -18.865
ltibia 72.3001
lfoot -15.0312 3.11108
ltoes -15.2408
129
root -1.16313 16.8303 24.4914 -8.39894 7.21508 -2.368
lowerback 12.349 -2.24151 1.12465
upperback -0.620512 -2.54578 3.54331
thorax -7.48662 -1.20772 3.60326
lowerneck -19.929 -4.04251 -10.1637
upperneck 21.3716 -3.84526 5.46883
head 10.4624 -1.94962 3.07066
rclavicle 1.04362e-015 7.95139e-016
rhumerus -43.0546 -13.4509 -71.4986
rradius 52.7581
rwrist 1.47877
rhand -20.3974 18.5876
rfingers 7.12502
rthumb 5.95613 -11.3087
lclavicle 1.04362e-015 7.95139e-016
lhumerus -31.3268 8.34668 89.1804
lradius 59.5327
lwrist 7.34441
lhand -26.8278 17.4042
lfingers 7.12502
lthumb -0.253752 47.3838
rfemur -20.2729 3.46442 22.7352
rtibia 36.5079
rfoot -1.73507 -4.82836
rtoes -2.11041
lfemur -16.8167 -7.19335 -18.6546
ltibia 71.1407
lfoot -15.4885 2.95826
ltoes -17.18
130
root -1.15606 16.8941 24.6238 -8.16573 6.89632 -2.34564
lowerback 12.3594 -2.03708 1.30577
upperback -0.550889 -2.24977 3.52224
thorax -7.44067 -1.07153 3.42153
lowerneck -19.9273 -4.133 -10.289
upperneck 20.9862 -3.96118 5.62925
head 10.3389 -1.98799 3.12616
rclavicle -1.91827e-014 -4.45278e-014
rhumerus -42.3759 -13.3363 -72.2238
rradius 53.0053
rwrist -1.35701
rhand -22.4992 15.995
rfingers 7.12502
rthumb 3.92667 -13.9486
lclavicle -1.91827e-014 -4.45278e-014
lhumerus -31.3395 8.55944 89.1069
lradius 56.7523
lwrist 7.44586
lhand -28.1007 18.005
lfingers 7.12502
lthumb -1.48318 47.9795
rfemur -19.679 3.75153 22.8299
rtibia 35.939
rfoot -1.76499 -4.84816
rtoes -1.68016
lfemur -17.7332 -6.57332 -18.6276
ltibia 69.8214
lfoot -16.0635 2.63043
ltoes -17.6169
131
root -1.14499 16.9552 24.7689 -7.95499 6.71497 -2.33007
lowerback 12.1378 -1.87986 1.53293
upperback -0.410363 -2.02396 3.46945
thorax -7.18482 -0.974061 3.17908
lowerneck -20.0203 -4.2024 -10.3694
upperneck 20.6727 -4.05667 5.80682
head 10.2569 -2.01111 3.184
rclavicle 3.29486e-014 -7.95139e-016
rhumerus -41.6761 -13.5946 -72.6111
rradius 52.7362
rwrist -2.94641
rhand -22.9725 15.0686
rfingers 7.12502
rthumb 3.46965 -14.8829
lclavicle 3.29486e-014 -7.95139e-016
lhumerus -31.1964 8.49237 89.2339
lradius 54.5245
lwrist 8.2104
lhand -30.5654 24.2714
lfingers 7.12502
lthumb -3.8635 54.2161
rfemur -19.1754 3.73178 22.8863
rtibia 35.5732
rfoot -1.96527 -4.79966
rtoes -0.304064
lfemur -18.3263 -6.04716 -18.6373
ltibia 68.3744
lfoot -16.7919 2.24456
ltoes -16.1911
132
root -1.13496 17.0106 24.9138 -7.6504 6.62678 -2.05439
lowerback 11.9881 -1.74608 1.50498
upperback -0.404711 -1.86723 3.31143
thorax -7.10427 -0.900467 2.99141
lowerneck -19.9673 -4.25499 -10.3591
upperneck 20.3388 -4.16367 5.9495
head 10.1393 -2.03878 3.21309
rclavicle 3.8266e-015 -6.36111e-015
rhumerus -40.9862 -13.885 -72.8869
rradius 52.0212
rwrist -3.76519
rhand -22.9107 14.3496
rfingers 7.12502
rthumb 3.52929 -15.6009
lclavicle 3.8266e-015 -6.36111e-015
lhumerus -31.3092 9.75276 88.4377
lradius 50.9559
lwrist 5.81783
lhand -25.061 15.8128
lfingers 7.12502
lthumb 1.45265 45.7876
rfemur -18.7978 3.50556 22.6642
rtibia 35.382
rfoot -2.20305 -4.65116
rtoes 0.508815
lfemur -18.975 -5.49336 -18.9821
ltibia 66.749
lfoot -17.4468 2.14906
ltoes -15.9362
133
root -1.1268 17.0623 25.0477 -7.3814 6.34387 -1.86064
lowerback 12.0502 -1.56954 1.55027
upperback -0.456819 -1.63346 3.14873
thorax -7.20976 -0.790319 2.75524
lowerneck -20.1213 -4.34116 -10.3723
upperneck 20.3574 -4.34151 6.26159
head 10.1977 -2.08261 3.30047
rclavicle 3.34455e-014 -2.8625e-014
rhumerus -40.3974 -13.9973 -73.2344
rradius 51.258
rwrist -4.55057
rhand -22.5472 13.965
rfingers 7.12502
rthumb 3.88038 -15.9794
lclavicle 3.34455e-014 -2.8625e-014
lhumerus -31.589 10.0304 88.168
lradius 49.0643
lwrist 5.42367
lhand -22.3273 16.8219
lfingers 7.12502
lthumb 4.09274 46.7623
rfemur -18.495 3.48473 22.5718
rtibia 35.2837
rfoot -2.25279 -4.41055
rtoes 0.366439
lfemur -19.85 -4.88052 -19.1306
ltibia 64.8844
lfoot -17.8137 1.66556
ltoes -15.0296
134
root -1.11905 17.1047 25.1763 -7.20617 5.8699 -1.94534
lowerback 12.1621 -1.36378 1.82068
upperback -0.471336 -1.31856 3.10824
thorax -7.30678 -0.646956 2.507
lowerneck -20.3229 -4.40206 -10.2934
upperneck 20.441 -4.44555 6.3132
head 10.2738 -2.11558 3.29014
rclavicle -1.04362e-014 -5.56597e-014
rhumerus -40.1279 -13.9 -73.5692
rradius 51.0533
rwrist -5.12114
rhand -21.8416 13.8957
rfingers 7.12502
rthumb 4.56176 -16.0352
lclavicle -1.04362e-014 -5.56597e-014
lhumerus -31.9161 11.1693 87.5174
lradius 46.2432
lwrist 4.5022
lhand -23.3587 15.5046
lfingers 7.12502
lthumb 3.09674 45.4619
rfemur -18.2945 3.73514 22.784
rtibia 35.3006
rfoot -2.29128 -4.2861
rtoes 0.0166187
lfemur -20.5619 -4.09263 -18.8671
ltibia 62.8633
lfoot -18.0977 1.0908
ltoes -13.7826
135
root -1.11075 17.1481 25.3111 -7.07819 5.32135 -2.11376
lowerback 12.191 -1.15346 2.13527
upperback -0.351592 -0.996004 3.10955
thorax -7.20975 -0.501609 2.26934
lowerneck -20.4981 -4.39973 -10.1398
upperneck 20.2043 -4.45253 6.27411
head 10.2162 -2.1055 3.24474
rclavicle 3.86388e-014 -2.22639e-014
rhumerus -39.6139 -13.8003 -73.9324
rradius 50.8645
rwrist -5.00684
rhand -20.7486 14.3
rfingers 7.12502
rthumb 5.61712 -15.6055
lclavicle 3.86388e-014 -2.22639e-014
lhumerus -32.1984 12.0243 87.1249
lradius 44.9237
lwrist 3.44428
lhand -23.2336 20.7558
lfingers 7.12502
lthumb 3.21752 50.7113
rfemur -18.1176 4.01386 23.1131
rtibia 35.401
rfoot -2.39096 -4.28886
rtoes -1.07926
lfemur -20.9417 -3.20431 -18.5219
ltibia 60.7516
lfoot -18.2516 0.998699
ltoes -14.9979
136
root -1.10266 17.1908 25.4511 -6.82073 4.97891 -1.87417
lowerback 12.0832 -0.9815 2.03238
upperback -0.29304 -0.797831 2.9868
thorax -7.09025 -0.403937 2.15647
lowerneck -20.558 -4.4079 -10.2434
upperneck 19.9869 -4.49434 6.59171
head 10.163 -2.09191 3.36682
rclavicle 5.91384e-015 3.18055e-015
rhumerus -39.015 -13.8681 -74.0391
rradius 49.9902
rwrist -3.71843
rhand -18.7476 16.2126
rfingers 7.12502
rthumb 7.54876 -13.6327
lclavicle 5.91384e-015 3.18055e-015
lhumerus -32.4893 13.2318 86.4534
lradius 42.8069
lwrist 2.4319
lhand -21.9737 18.5241
lfingers 7.12502
lthumb 4.43418 48.4577
rfemur -18.0018 4.13667 22.968
rtibia 35.548
rfoot -2.47214 -4.27194
rtoes -1.37627
lfemur -21.3123 -2.54734 -18.7006
ltibia 58.529
lfoot -18.5517 1.38128
ltoes -17.3374
137
root -1.08711 17.231 25.5921 -6.5304 4.78504 -1.35295
lowerback 11.9339 -0.83163 1.74119
upperback -0.291205 -0.662456 2.75671
thorax -7.00505 -0.332209 2.04873
lowerneck -20.4646 -4.48935 -10.23
upperneck 19.6754 -4.65266 6.76712
head 10.0533 -2.14178 3.3995
rclavicle -8.72168e-015 -1.51076e-014
rhumerus -38.6293 -13.232 -74.5464
rradius 49.9727
rwrist -3.33089
rhand -19.0731 15.7339
rfingers 7.12502
rthumb 7.23461 -14.1224
lclavicle -8.72168e-015 -1.51076e-014
lhumerus -32.7392 14.458 85.6805
lradius 40.5307
lwrist 1.30404
lhand -21.5485 19.504
lfingers 7.12502
lthumb 4.84478 49.4286
rfemur -17.804 3.94205 22.4581
rtibia 35.6793
rfoot -2.62455 -4.01815
rtoes -1.24248
lfemur -21.6082 -2.15326 -19.2725
ltibia 56.24
lfoot -19.0125 2.0946
ltoes -18.5043
138
root -1.07212 17.268 25.7297 -6.36859 4.30345 -1.22974
lowerback 11.8829 -0.67139 1.78974
upperback -0.271621 -0.450679 2.67826
thorax -6.96066 -0.232156 1.89907
lowerneck -20.375 -4.52459 -10.1727
upperneck 19.4422 -4.71678 6.75641
head 9.95798 -2.16771 3.37344
rclavicle 1.30452e-014 -7.95139e-015
rhumerus -38.3077 -12.4554 -75.043
rradius 50.0684
rwrist -2.79024
rhand -18.984 15.7873
rfingers 7.12502
rthumb 7.32056 -14.0661
lclavicle 1.30452e-014 -7.95139e-015
lhumerus -33.1779 15.7732 84.8536
lradius 38.5218
lwrist 0.527388
lhand -21.31 21.0102
lfingers 7.12502
lthumb 5.07498 50.9295
rfemur -17.5378 4.03896 22.4355
rtibia 35.7748
rfoot -2.69634 -3.77661
rtoes -1.54045
lfemur -21.7067 -1.71267 -19.356
ltibia 54.0044
lfoot -18.6821 2.95246
ltoes -17.5864
139
root -1.06022 17.305 25.8666 -6.20873 3.55552 -1.39587
lowerback 11.687 -0.472185 2.05653
upperback -0.200279 -0.158129 2.68651
thorax -6.78035 -0.0983271 1.7013
lowerneck -20.2069 -4.39701 -10.1721
upperneck 19.2541 -4.60008 6.97001
head 9.85439 -2.09055 3.46629
rclavicle 2.03754e-015 3.97569e-015
rhumerus -37.7081 -11.7234 -75.6089
rradius 49.9693
rwrist -1.89221
rhand -18.1073 15.9274
rfingers 7.12502
rthumb 8.16676 -13.8948
lclavicle 2.03754e-015 3.97569e-015
lhumerus -33.8797 17.0615 83.9765
lradius 37.0695
lwrist -0.0534718
lhand -21.196 21.3367
lfingers 7.12502
lthumb 5.18515 51.2533
rfemur -17.3084 4.34347 22.7863
rtibia 35.8388
rfoot -2.7533 -3.57353
rtoes -1.74413
lfemur -21.7144 -1.21688 -19.0442
ltibia 51.841
lfoot -17.8603 3.78777
ltoes -15.6586
140
root -1.04491 17.3368 26.0044 -5.95347 2.95697 -1.40789
lowerback 11.4284 -0.30535 2.22862
upperback -0.22086 0.0728668 2.62325
thorax -6.65893 0.00777763 1.49469
lowerneck -19.8978 -4.24559 -10.0574
upperneck 19.0774 -4.4618 7.02282
head 9.72043 -2.01623 3.48617
rclavicle -1.12313e-014 3.26007e-014
rhumerus -37.3042 -10.8562 -76.1278
rradius 50.0323
rwrist -0.949741
rhand -17.1005 16.037
rfingers 7.12502
rthumb 9.1384 -13.745
lclavicle -1.12313e-014 3.26007e-014
lhumerus -34.6517 18.375 82.9625
lradius 35.5545
lwrist -0.645672
lhand -21.034 21.5584
lfingers 7.12502
lthumb 5.34156 51.4711
rfemur -17.1485 4.57451 22.9156
rtibia 35.8512
rfoot -2.81635 -3.45672
rtoes -1.83321
lfemur -21.8011 -0.973821 -18.9248
ltibia 49.7824
lfoot -16.894 4.4836
ltoes -12.5771
